<?xml version="1.0" standalone="no"?>
<!DOCTYPE svg PUBLIC "-//W3C//DTD SVG 20010904//EN"
 "http://www.w3.org/TR/2001/REC-SVG-20010904/DTD/svg10.dtd">
<svg version="1.0" xmlns="http://www.w3.org/2000/svg"
 width="514.000000pt" height="168.000000pt" viewBox="0 0 514.000000 168.000000"
 preserveAspectRatio="xMidYMid meet">

<g transform="translate(0.000000,168.000000) scale(0.100000,-0.100000)"
fill="#cc5500" stroke="none">
<path d="M494 1623 c-35 -7 -66 -48 -71 -96 -5 -38 -1 -48 23 -76 47 -52 160
-56 210 -6 19 19 24 35 24 72 0 27 -7 58 -15 70 -24 34 -100 50 -171 36z"/>
<path d="M2400 1105 l0 -505 125 0 125 0 0 505 0 505 -125 0 -125 0 0 -505z"/>
<path d="M1065 1327 c-68 -23 -101 -44 -148 -97 -56 -62 -77 -120 -84 -231
-12 -180 53 -311 185 -376 53 -26 66 -28 177 -28 111 0 124 2 177 28 109 53
172 157 184 300 15 176 -59 322 -195 385 -46 22 -73 27 -156 29 -63 2 -115 -2
-140 -10z m188 -187 c36 -28 51 -81 51 -175 0 -134 -36 -195 -114 -195 -77 0
-117 86 -107 231 5 83 25 130 61 148 34 16 82 12 109 -9z"/>
<path d="M1913 1325 c-60 -18 -124 -58 -149 -92 -64 -87 -90 -190 -81 -316 12
-144 74 -239 197 -296 52 -24 64 -26 205 -26 126 1 158 4 200 21 l50 20 3 87
c1 48 1 87 0 87 -2 0 -31 -10 -63 -21 -85 -30 -219 -36 -265 -12 -38 20 -80
75 -80 104 0 18 13 19 230 19 l230 0 0 68 c-1 193 -74 316 -213 357 -62 18
-206 19 -264 0z m195 -165 c32 -20 52 -54 52 -91 0 -18 -8 -19 -110 -19 -102
0 -110 1 -110 19 0 56 55 111 110 111 14 0 40 -9 58 -20z"/>
<path d="M2875 1326 c-63 -14 -135 -41 -135 -50 0 -5 60 -145 66 -154 1 -1 35
9 77 23 134 45 217 26 217 -51 l0 -34 -67 0 c-261 0 -386 -92 -370 -271 6 -74
38 -133 89 -166 38 -26 49 -28 142 -28 113 0 136 8 198 70 l37 37 25 -51 26
-51 85 0 85 0 0 269 c0 298 -5 329 -63 389 -60 63 -98 76 -232 79 -74 1 -143
-3 -180 -11z m235 -423 c0 -88 -47 -143 -120 -143 -41 0 -53 7 -69 38 -36 69
32 128 152 131 34 1 37 -1 37 -26z"/>
<path d="M3744 1317 c-28 -14 -60 -36 -71 -51 -12 -14 -25 -26 -31 -26 -5 0
-17 20 -26 45 l-18 45 -94 0 -94 0 0 -365 0 -365 124 0 124 0 4 223 c3 192 6
227 22 260 44 90 160 90 186 -1 5 -20 10 -137 10 -259 l0 -223 125 0 125 0 0
253 c0 281 -9 345 -58 406 -45 55 -94 76 -192 79 -73 2 -92 -1 -136 -21z"/>
<path d="M4450 1321 c-66 -24 -133 -90 -149 -147 -28 -102 4 -219 73 -267 l37
-24 -37 -28 c-51 -39 -69 -84 -50 -128 7 -19 28 -45 46 -59 l32 -25 -28 -6
c-37 -7 -91 -44 -117 -79 -14 -19 -20 -42 -20 -81 0 -79 27 -118 111 -159 66
-33 67 -33 217 -33 131 0 159 3 217 23 133 46 197 117 205 227 10 112 -34 185
-127 213 -19 6 -96 12 -171 15 -147 5 -182 15 -177 50 3 20 10 22 98 28 52 3
113 11 136 17 59 17 120 65 145 114 23 45 31 128 17 180 -8 25 -5 27 42 43
l50 17 0 59 0 59 -92 0 c-51 0 -163 3 -248 5 -138 5 -161 4 -210 -14z m205
-136 c21 -20 25 -34 25 -84 0 -73 -14 -107 -49 -119 -69 -23 -116 33 -107 128
4 43 11 60 31 78 34 29 70 28 100 -3z m89 -627 c30 -13 41 -40 27 -66 -18 -33
-79 -54 -170 -59 -74 -4 -90 -2 -119 16 -18 12 -35 28 -39 37 -8 22 13 63 39
74 33 13 233 12 262 -2z"/>
<path d="M429 948 c0 -269 -4 -393 -12 -418 -15 -44 -49 -61 -104 -53 l-43 6
0 -96 0 -96 46 -7 c122 -18 237 10 296 73 58 60 58 63 58 538 l0 435 -120 0
-120 0 -1 -382z"/>
</g>
</svg>
