<?xml version="1.0" standalone="no"?>
<!DOCTYPE svg PUBLIC "-//W3C//DTD SVG 20010904//EN"
 "http://www.w3.org/TR/2001/REC-SVG-20010904/DTD/svg10.dtd">
<svg version="1.0" xmlns="http://www.w3.org/2000/svg"
 width="371.000000pt" height="106.000000pt" viewBox="0 0 371.000000 106.000000"
 preserveAspectRatio="xMidYMid meet">

<g transform="translate(0.000000,106.000000) scale(0.100000,-0.100000)"
fill="#cc5500" stroke="none">
<path d="M173 1046 c-59 -27 -53 -114 10 -135 59 -20 107 11 107 69 0 61 -56
93 -117 66z"/>
<path d="M1662 692 c3 -333 4 -360 22 -387 11 -17 27 -35 35 -42 22 -16 83
-24 120 -17 30 6 31 8 25 43 -10 59 -15 71 -29 71 -31 0 -35 40 -35 364 l0
326 -71 0 -70 0 3 -358z"/>
<path d="M617 806 c-115 -32 -187 -124 -195 -250 -5 -86 8 -139 51 -202 45
-67 122 -107 209 -106 108 0 183 47 236 147 22 43 26 63 26 135 0 72 -4 92
-26 135 -63 119 -180 175 -301 141z m116 -117 c91 -41 92 -276 2 -317 -46 -21
-94 -15 -125 16 -92 93 -48 312 64 312 19 0 46 -5 59 -11z"/>
<path d="M1234 802 c-62 -22 -101 -51 -136 -104 -35 -51 -48 -98 -48 -168 0
-191 144 -312 330 -278 55 10 130 42 130 56 0 4 -11 23 -23 43 l-22 36 -40
-18 c-98 -44 -202 -5 -233 89 l-11 32 174 0 174 0 3 33 c5 48 -10 144 -27 177
-49 94 -167 139 -271 102z m120 -102 c28 -10 50 -41 60 -82 l6 -28 -120 0
c-121 0 -121 0 -114 23 24 76 97 114 168 87z"/>
<path d="M2115 806 c-53 -13 -145 -51 -145 -60 0 -3 10 -25 21 -50 l22 -44 51
24 c69 32 144 33 174 1 12 -13 22 -35 22 -49 0 -24 -4 -27 -52 -33 -68 -9
-164 -41 -200 -67 -85 -60 -79 -208 9 -259 66 -38 158 -28 227 25 36 27 46 22
46 -25 0 -17 8 -19 61 -19 l61 0 -4 203 c-5 215 -12 253 -61 306 -45 48 -146
69 -232 47z m155 -339 c0 -43 -5 -58 -22 -75 -50 -46 -136 -53 -158 -12 -29
53 6 104 87 126 88 23 93 22 93 -39z"/>
<path d="M2820 808 c-19 -5 -56 -25 -82 -43 -25 -19 -49 -31 -52 -28 -3 4 -6
21 -6 40 l0 33 -60 0 -60 0 0 -280 0 -280 70 0 70 0 0 188 0 188 28 26 c35 34
78 50 114 43 54 -12 58 -30 58 -247 l0 -198 70 0 70 0 0 218 c0 206 -1 220
-22 262 -35 69 -118 102 -198 78z"/>
<path d="M3337 806 c-86 -24 -141 -82 -152 -161 -8 -48 17 -116 53 -149 l22
-19 -30 -34 c-38 -43 -41 -106 -8 -148 21 -27 21 -28 3 -41 -31 -23 -55 -67
-55 -102 0 -51 25 -88 77 -113 41 -20 63 -24 148 -24 159 0 252 44 290 137 31
79 -6 155 -86 178 -18 6 -74 10 -124 10 -145 0 -185 20 -163 79 7 21 12 23 53
16 154 -23 279 89 246 221 -6 24 -11 45 -11 48 0 3 20 6 45 6 l45 0 0 50 0 50
-124 0 c-68 0 -136 2 -152 5 -16 2 -51 -2 -77 -9z m120 -101 c32 -23 47 -77
33 -120 -14 -42 -44 -65 -85 -65 -41 0 -71 23 -85 65 -22 68 20 135 85 135 17
0 40 -7 52 -15z m81 -481 c32 -22 26 -70 -11 -98 -24 -17 -43 -21 -112 -21
-75 0 -86 2 -110 25 -21 20 -25 31 -21 54 11 52 20 56 130 56 77 0 107 -4 124
-16z"/>
<path d="M140 490 c0 -312 -1 -321 -21 -341 -16 -16 -29 -20 -54 -16 -31 5
-32 4 -43 -41 -6 -29 -7 -51 -1 -56 5 -6 37 -10 72 -10 84 0 133 26 164 84 23
42 23 49 23 372 l0 328 -70 0 -70 0 0 -320z"/>
</g>
</svg>
